<svg xmlns="http://www.w3.org/2000/svg" viewBox="0 0 2000 2000"><defs><linearGradient id="d" x1="441.94" x2="443.95" y1="2221.14" y2="2221.14" gradientTransform="scale(-171.82 171.82) rotate(67.872 1863.078 780.3)" gradientUnits="userSpaceOnUse"><stop offset="0" stop-color="#bfbfbf" class="stopColorbfbfbf svgShape"/><stop offset="1" stop-color="#000000" class="stopColor000000 svgShape"/></linearGradient><linearGradient id="f" x1="441.94" x2="443.95" y1="2221.14" y2="2221.14" gradientTransform="scale(-171.82 171.82) rotate(67.872 1863.078 780.3)" gradientUnits="userSpaceOnUse"><stop offset="0" stop-color="#ffe480" class="stopColorffe480 svgShape"/><stop offset="1" stop-color="#fefdf6" class="stopColorfefdf6 svgShape"/></linearGradient><linearGradient id="h" x1="422.12" x2="424.13" y1="2228.74" y2="2228.74" gradientTransform="scale(-52.23 52.23) rotate(-73.13 -1277.363 1419.63)" gradientUnits="userSpaceOnUse"><stop offset="0" stop-color="#f5f5f0" class="stopColorf5f5f0 svgShape"/><stop offset="1" stop-color="#e6e6e6" class="stopColore6e6e6 svgShape"/></linearGradient><linearGradient id="i" x1="456.43" x2="458.45" y1="2204.4" y2="2204.4" gradientTransform="matrix(13.89 37.39 37.39 -13.89 -88346.95 14938.77)" gradientUnits="userSpaceOnUse"><stop offset="0" stop-color="#f2f2f2" class="stopColorf2f2f2 svgShape"/><stop offset="1" stop-color="#ffffff" class="stopColorfff svgShape"/></linearGradient><clipPath id="g"><path fill="#c9c9b1" d="M1556.05,1299c30.67,2.87,117.08-1.32,123.62-91.66,6-83.51-80.76-98.89-118-101.22-35.21-2.2-105.13,11.39-112.8,92.28C1441.29,1278.48,1501.09,1293.84,1556.05,1299Z" clip-rule="evenodd" class="colorc9c9b1 svgShape"/></clipPath><clipPath id="j"><path fill="#d5d5c3" d="M1034,1505.06s1.06-47.47-51.84-63.34c0,0,196.34-138,454.74-62,9.92,53.06-2.68,109.76-2.68,109.76Z" clip-rule="evenodd" class="colord5d5c3 svgShape"/></clipPath><clipPath id="k"><path fill="#d5d5c3" d="M531.7,1496.68c-9.33-40.77-12.33-83.26-10.09-125.52a12.58,12.58,0,0,1,10.93-11.75c51.93-6,289.67-26.35,450.82,81,0,0-53.63,14.2-42.06,66.65Z" clip-rule="evenodd" class="colord5d5c3 svgShape"/></clipPath><filter id="a" width="559.57" height="32766" x="811.68" y="-9192" color-interpolation-filters="sRGB" filterUnits="userSpaceOnUse"><feFlood flood-color="#fff" result="bg"/><feBlend in="SourceGraphic" in2="bg"/></filter><filter id="c" width="559.57" height="346.58" x="811.68" y="1129.42" color-interpolation-filters="sRGB" filterUnits="userSpaceOnUse"><feFlood flood-color="#fff" result="bg"/><feBlend in="SourceGraphic" in2="bg"/></filter><mask id="e" width="559.57" height="346.58" x="811.68" y="1129.42" maskUnits="userSpaceOnUse"><g filter="url(#c)" mask="url(#b)" fill="#000000" class="color000 svgShape"><path d="M1175.06,1129.42l103.22,40.4,93,215.33s-255.48,93.09-348.74,90.82c-78.4-1.91-210.82-104.44-210.82-104.44Z" style="mix-blend-mode:multiply" fill="url(#d)" fill-rule="evenodd"/></g></mask></defs><g style="isolation:isolate" fill="#000000" class="color000 svgShape"><path fill="#001f33" fill-rule="evenodd" d="M214.86,1543.3c-43.19-94.65-179.6-561.48,59.51-868s679.2-422.15,1052.91-281.77c297.6,111.78,490.75,399.18,522.16,660.84,28.32,235.77-14.7,643-370,713C1078.15,1846.42,362,1865.82,214.86,1543.3Z" class="color001f33 svgShape"/><path fill="#ffde66" fill-rule="evenodd" d="M370.73 675.83a5.15 5.15 0 018.58-4.74l12.28 11.49a5.14 5.14 0 006 .75l14.72-8.13a5.15 5.15 0 017.15 6.69c-2.64 5.64-5.43 11.62-7.13 15.23a5.15 5.15 0 001.14 6l12.28 11.49a5.15 5.15 0 01-4.15 8.87l-16.69-2.08a5.17 5.17 0 00-5.3 2.93l-7.13 15.23a5.15 5.15 0 01-9.72-1.21c-1.18-6.11-2.43-12.59-3.18-16.51a5.17 5.17 0 00-4.42-4.15l-16.69-2.07a5.15 5.15 0 01-1.85-9.62l14.72-8.13a5.15 5.15 0 002.57-5.48C373.16 688.42 371.91 681.94 370.73 675.83zM1316.35 484.89a5.15 5.15 0 018.8 4.31c-.88 6.16-1.81 12.69-2.37 16.65a5.14 5.14 0 002.83 5.35l15.11 7.39a5.16 5.16 0 01-1.38 9.7l-16.57 2.89a5.15 5.15 0 00-4.21 4.35c-.56 4-1.5 10.49-2.37 16.65a5.15 5.15 0 01-9.65 1.69L1298.67 539a5.16 5.16 0 00-5.44-2.67l-16.57 2.9a5.15 5.15 0 01-4.58-8.66l11.7-12.08a5.16 5.16 0 00.86-6c-1.88-3.53-5-9.36-7.88-14.86a5.15 5.15 0 016.82-7l15.1 7.4a5.17 5.17 0 006-1C1307.42 494.1 1312 489.36 1316.35 484.89zM581.13 736.25a2.28 2.28 0 014.19-1.15l4.09 6.24a2.27 2.27 0 002.51.95l7.19-2a2.29 2.29 0 012.38 3.64l-4.67 5.81a2.28 2.28 0 00-.13 2.68c1 1.48 2.58 3.93 4.09 6.24a2.28 2.28 0 01-2.72 3.38l-7-2.64a2.3 2.3 0 00-2.59.7L583.83 766a2.28 2.28 0 01-4.06-1.54c.13-2.76.28-5.68.36-7.45a2.28 2.28 0 00-1.47-2.24l-7-2.65a2.28 2.28 0 01.21-4.33l7.19-2a2.29 2.29 0 001.68-2.1C580.86 741.92 581 739 581.13 736.25zM823.57 527.69a2.28 2.28 0 014.33.31c.66 2.68 1.37 5.52 1.79 7.24a2.29 2.29 0 002 1.73l7.44.53a2.29 2.29 0 011 4.22l-6.33 3.94a2.27 2.27 0 00-1 2.48c.42 1.72 1.12 4.56 1.78 7.24a2.28 2.28 0 01-3.68 2.3l-5.7-4.81a2.29 2.29 0 00-2.68-.19l-6.33 3.93a2.28 2.28 0 01-3.32-2.8c1-2.55 2.14-5.26 2.8-6.9a2.27 2.27 0 00-.64-2.61l-5.7-4.8a2.29 2.29 0 011.64-4l7.43.54a2.28 2.28 0 002.28-1.42zM1674.16 752.65a2.28 2.28 0 014.17-1.21l4.2 6.16a2.26 2.26 0 002.52.91l7.16-2.09a2.28 2.28 0 012.44 3.59l-4.56 5.9a2.27 2.27 0 00-.08 2.68l4.19 6.16a2.28 2.28 0 01-2.66 3.44l-7-2.52a2.3 2.3 0 00-2.58.75c-1.08 1.4-2.88 3.71-4.56 5.9a2.29 2.29 0 01-4.09-1.47c.08-2.76.17-5.69.22-7.45a2.29 2.29 0 00-1.5-2.23l-7-2.51a2.28 2.28 0 01.13-4.34l7.16-2.09a2.28 2.28 0 001.64-2.12C1674 758.34 1674.07 755.41 1674.16 752.65zM657.81 462A1.75 1.75 0 01660.4 460l4.77 3.12a1.73 1.73 0 002.05-.1c1.06-.84 2.8-2.24 4.44-3.57a1.74 1.74 0 012.05-.09 1.72 1.72 0 01.73 1.91l-1.49 5.5a1.73 1.73 0 00.73 1.92l4.76 3.12a1.75 1.75 0 01-.87 3.21l-5.69.27a1.76 1.76 0 00-1.6 1.29c-.35 1.31-.94 3.47-1.49 5.5a1.75 1.75 0 01-3.32.16l-2-5.33a1.76 1.76 0 00-1.72-1.12L656 476a1.75 1.75 0 01-1.17-3.11l4.44-3.57a1.74 1.74 0 00.54-2C659.36 466.1 658.56 464 657.81 462zM955 435a1.75 1.75 0 012.84 1.73c-.49 2.05-1 4.23-1.31 5.55a1.73 1.73 0 00.79 1.89l4.87 3a1.76 1.76 0 01.79 1.89 1.73 1.73 0 01-1.55 1.34l-5.68.47a1.73 1.73 0 00-1.56 1.34c-.31 1.31-.83 3.49-1.31 5.54a1.75 1.75 0 01-3.31.28c-.81-1.95-1.68-4-2.2-5.26a1.75 1.75 0 00-1.75-1.07l-5.69.47a1.74 1.74 0 01-1.28-3.06l4.32-3.72a1.74 1.74 0 00.48-2c-.53-1.24-1.39-3.31-2.21-5.26a1.75 1.75 0 012.52-2.16l4.87 3a1.75 1.75 0 002-.17zM456.48 876.53a1.75 1.75 0 013.21-.86l3.11 4.77a1.75 1.75 0 001.92.73l5.5-1.49a1.77 1.77 0 011.92.73 1.74 1.74 0 01-.11 2.05l-3.57 4.44a1.74 1.74 0 00-.11 2.05l3.12 4.77a1.75 1.75 0 01-2.08 2.59l-5.33-2a1.75 1.75 0 00-2 .53l-3.58 4.44a1.74 1.74 0 01-3.1-1.18c.11-2.11.22-4.34.28-5.69a1.74 1.74 0 00-1.12-1.72l-5.32-2a1.75 1.75 0 01.16-3.32l5.51-1.49a1.73 1.73 0 001.28-1.59C456.26 880.87 456.37 878.64 456.48 876.53zM1282.46 672.57a1.75 1.75 0 013.32-.07c.69 2 1.43 4.1 1.87 5.38a1.75 1.75 0 001.69 1.17l5.7-.12a1.74 1.74 0 011.09 3.13l-4.54 3.45a1.75 1.75 0 00-.59 2c.45 1.28 1.18 3.39 1.88 5.38a1.75 1.75 0 01-2.65 2l-4.68-3.25a1.74 1.74 0 00-2 0l-4.54 3.45a1.75 1.75 0 01-2.73-1.9l1.65-5.45a1.75 1.75 0 00-.68-1.94l-4.68-3.25a1.75 1.75 0 01-.67-1.94 1.73 1.73 0 011.63-1.24l5.7-.12a1.75 1.75 0 001.63-1.24zM1779.53 1050a1.75 1.75 0 013.27-.61l2.73 5a1.73 1.73 0 001.85.88l5.61-1a1.74 1.74 0 011.59 2.91l-3.92 4.14a1.76 1.76 0 00-.26 2l2.73 5a1.75 1.75 0 01-2.28 2.42l-5.15-2.44a1.76 1.76 0 00-2 .37c-.92 1-2.46 2.61-3.91 4.15a1.75 1.75 0 01-3-1.42c.27-2.09.56-4.31.73-5.66a1.75 1.75 0 00-1-1.8l-5.15-2.44a1.74 1.74 0 01.42-3.29l5.61-1a1.74 1.74 0 001.4-1.5C1779 1054.32 1779.26 1052.1 1779.53 1050zM244.45 956a4 4 0 017.6-.56c1.82 4.47 3.77 9.22 4.94 12.09a4 4 0 004 2.48l13-1a4 4 0 012.88 7l-10 8.44a4 4 0 00-1.12 4.57c1.18 2.87 3.12 7.62 4.95 12.09a4 4 0 01-5.81 4.92l-11.11-6.87a4 4 0 00-4.69.34l-10 8.45a4 4 0 01-6.47-4l3.11-12.69a4 4 0 00-1.78-4.36l-11.12-6.87a4 4 0 011.82-7.4l13-1a4 4 0 003.59-3C242.08 965.63 243.3 960.65 244.45 956zM1104.21 523a2.89 2.89 0 015.12-2l6 7.28a2.89 2.89 0 003.3.84l8.78-3.48a2.9 2.9 0 013.51 4.24c-1.88 3-3.86 6.09-5.06 8a2.89 2.89 0 00.21 3.4l6 7.27a2.89 2.89 0 01-2.95 4.65l-9.15-2.35a2.91 2.91 0 00-3.16 1.25l-5.06 8a2.89 2.89 0 01-5.33-1.37c-.22-3.49-.45-7.19-.59-9.42a2.91 2.91 0 00-2.17-2.63l-9.15-2.34a2.89 2.89 0 01-.35-5.49l8.79-3.48a2.9 2.9 0 001.82-2.88C1104.66 530.23 1104.43 526.53 1104.21 523zM1585.57 901.49a3.71 3.71 0 016.18 3.4l-2.27 11.9a3.71 3.71 0 001.86 3.94l10.61 5.83a3.71 3.71 0 01-1.33 6.93l-12 1.52a3.72 3.72 0 00-3.18 3c-.53 2.83-1.43 7.49-2.27 11.9a3.7 3.7 0 01-7 .88l-5.16-11a3.73 3.73 0 00-3.82-2.1l-12 1.52a3.71 3.71 0 01-3-6.38l8.82-8.29a3.72 3.72 0 00.82-4.28c-1.23-2.6-3.25-6.9-5.16-11a3.71 3.71 0 015.15-4.82l10.61 5.83a3.71 3.71 0 004.32-.55z" class="colorffde66 svgShape"/><path fill="#ffe480" fill-rule="evenodd" d="M586,565.51c35.69-14.29,61.93-56.19,61.93-56.19s-58.46,16.81-111.61-3.22a124.94,124.94,0,0,1-17.53-8.17c3.54-5.74,13.7-17.63,8-20-18.7-7.68-46.6-13.12-55.39-30.36C435,376.18,485.63,296.52,556,275,434.6,240.47,299.16,379.45,357.18,493.34,417.84,612.42,515.83,593.6,586,565.51Z" class="colorffe480 svgShape"/><path fill="#eb5f61" d="M464.6 553a3.3 3.3 0 01-3.23-2.66L459 538.39a3.3 3.3 0 116.48-1.29l2.37 11.9a3.32 3.32 0 01-2.6 3.89A3.57 3.57 0 01464.6 553zM472.85 543.77a3.32 3.32 0 01-3.24-2.66l-2.36-11.9a3.3 3.3 0 116.48-1.29l2.36 11.9a3.3 3.3 0 01-2.59 3.89A3.66 3.66 0 01472.85 543.77zM481.1 534.59a3.3 3.3 0 01-3.24-2.66L475.49 520a3.3 3.3 0 116.48-1.29l2.37 11.9a3.3 3.3 0 01-2.6 3.88A2.79 2.79 0 01481.1 534.59z" class="coloreb5f61 svgShape"/><path fill="#c9c9b1" d="M1526.36,580.85c-30.32,0-59.9-11.86-83.48-33.53-23.1-21.23-37.16-49.25-38.57-76.88-1.67-32.7,6-61.88,22-84.4,19-26.64,49-43.61,89.13-50.45h0c25.4-4.34,66,1.64,95.22,25,24.43,19.55,37.75,47.63,39.6,83.47,2.12,40.88-8.79,75.37-31.56,99.73-21.77,23.3-53.91,36.45-90.51,37ZM1532,348.74a86.85,86.85,0,0,0-14.12,1.05h0c-90.83,15.49-101.12,81.78-99.18,119.92,2.35,46,48.75,96.73,107.65,96.73H1528c32.65-.53,61.14-12,80.21-32.47,20-21.43,29.61-52.26,27.7-89.15-1.63-31.55-13.14-56.1-34.21-73C1578.85,353.57,1550.94,348.74,1532,348.74Zm-15.33-6.05h0Z" class="colorc9c9b1 svgShape"/><path fill="#fefdf6" d="M1557.48,579.69a1.8,1.8,0,0,1-1.64-1.08L1529.44,519l-41.52,58a1.8,1.8,0,0,1-3.25-1.23c1.81-18.69,4-41.32,6.26-65.11l-61,25.66a1.78,1.78,0,0,1-2.11-.55,1.82,1.82,0,0,1,0-2.19l43.13-57.83L1402.87,468a1.8,1.8,0,0,1-.46-3.47l65.2-25.56-50.31-38.34a1.8,1.8,0,0,1,1.41-3.2l61.81,11.16-23.34-52.69a1.8,1.8,0,0,1,2.71-2.18l42.88,31.49c2.55-27.71,4.23-47,4.17-48.85a1.8,1.8,0,0,1,3.4-1l26.16,52.47,36-48.25a1.8,1.8,0,0,1,3.24,1.2l-4,57.39,56-21.95a1.81,1.81,0,0,1,2.08.57,1.79,1.79,0,0,1,0,2.15l-35.94,50.16,57.66,10.41a1.8,1.8,0,0,1,.38,3.43L1607,461.81l41.85,30.73a1.8,1.8,0,0,1-1.27,3.24l-60.74-6.89L1616.34,548a1.8,1.8,0,0,1-2.7,2.24l-49.8-37.94L1559.28,578a1.81,1.81,0,0,1-1.48,1.65A1.73,1.73,0,0,1,1557.48,579.69Zm-25.6-64.06,24.31,54.88,4.22-60.84-15.69-11.95Zm-37.17-6.57c-2.28,23.81-4.35,45.25-5.81,60.37l38.85-54.22-7.49-16.9Zm69.43-1.08,45.53,34.69-27.05-54.26-17-1.93Zm-89.07-31.78-40.44,54.22,56.69-23.85c.89-9.31,1.8-18.77,2.7-28.22Zm48.51,20.71,6.61,14.9,11.66-16.28-5.33-4.06Zm23.24-2.12,13.88,10.58,1.34-19.3-8.3-.94Zm-49.22-16c-.85,8.9-1.69,17.69-2.5,26.22l23.7-10-6.46-14.58Zm18.89,2.14,5.64,12.72,11.08-4.67-9.49-7.23Zm23.86,9,3.6,2.74,4.37-6.09Zm44.62-4.81,56.33,6.39-38.13-28-24,10.08Zm-54.26-2.53,6.33,4.82,7.69-3.23Zm35.16.36,14.83,1.68-4.81-9.65-9.75,4.1Zm-7-.8,3.45.39.13-1.9Zm-33.72-3.82,26.4,3,.81-.34,11.15-15.56.93-13.47-13.3-26.69-.33-.24-25.69-4.64-11.79,4.62-12.14,16.28q-.2,2.09-.39,4.2l9.56,21.58ZM1563,472.2l-4.33,6,4-1.69Zm-48.2,4.88,3.33.38-4.77-3.63Zm-16.86-1.91,12.71,1.44-3.24-7.31L1499.1,463Q1498.53,469.08,1497.94,475.17Zm69.06-8.55-.58,8.36,7.86-3.3-4.47-9Zm-89.44,6.24,16.8,1.91q.69-7.22,1.36-14.38l-5.65-4.3Zm-67.08-7.61,62.94,7.14,13.78-18.49L1471,441.53Zm161.7-5.86,5.43,10.89,22.18-9.33L1581,447.13Zm-72.68-.65,4.88,3.72-4.31-9.72C1499.88,454.73,1499.7,456.74,1499.5,458.74Zm68.08-.5-.1,1.53.51-.71Zm15.49-14,20.59,15.12L1645,442l-53.37-9.64Zm-90.85,9,3.9,3q.45-4.73.89-9.4Zm75.85-2.05,2.29,4.6,7.71-10.76-9.11-6.68ZM1474.89,440l14.47,11,6.24-8.37-4.06-9.17Zm82.57-10.13,7.44,14.93.63-9Zm11.8,4.19,10.91,8,7.49-10.46-18-3.25Zm-74.37-1.9,2.89,6.51q.38-4,.75-7.93Zm-69.46-29.84,46.11,35.13,18.54-7.27-7.79-17.59Zm76.86,26.94-.48,5.06,5.14-6.89Zm56.56-2.84,7,5.12.27-3.82Zm-72.28-13.06,6.86,15.5,5.48-2.14c.34-3.71.69-7.36,1-10.94Zm83.33,11.39,20.08,3.63,33.39-46.6-51.9,20.35Zm-66.41-8.33q-.4,4.36-.82,8.82L1511,422l2.75-3.68Zm49.94,5.36,12.91,2.33,1.42-20.52-19.58,7.67Zm-22-4,12.69,2.29-6.45-4.73ZM1517.74,419l-.36.48.95-.37Zm24-5.18,5.9,4.34-2.77-5.57Zm-21.54,2,4.57.82,9.56-3.74-7.72-5.68Zm-16.32-2.95,12.35,2.23,7.47-10-17.88-13.14C1505.16,398.53,1504.51,405.53,1503.83,412.81Zm-19-3.43,15.46,2.79c.75-8,1.46-15.63,2.11-22.76l-39.17-28.77Zm43.9-5.11,9.54,7,5-1.94-7.32-14.69Zm9.59-12.85,8.27,16.6L1568,399.6l3.67-53Zm-32.15-3.71,19.66,14.43,8.27-11.1-24-48.14C1509.41,351.64,1508,367.73,1506.15,387.71Z" class="colorfefdf6 svgShape"/><path fill="#fefdf6" d="M1542.37,354h-.09a5.39,5.39,0,0,1-5.31-5.5c0-.94,1.58-94.88-.38-159.26a5.41,5.41,0,0,1,5.24-5.57h.17a5.4,5.4,0,0,1,5.4,5.24c2,64.64.39,158.83.37,159.78A5.4,5.4,0,0,1,1542.37,354Z" class="colorfefdf6 svgShape"/><path fill="#ffe480" fill-rule="evenodd" d="M1546.79,330.52c15.45-.74,20-19.39,8.82-29.23s-30.37-.46-28.29,14S1538.56,330.91,1546.79,330.52Z" class="colorffe480 svgShape"/><path fill="#52bbc7" fill-rule="evenodd" d="M1544.55,294.47c9.93-.48,12.85-12.46,5.67-18.78s-19.51-.3-18.18,9S1539.26,294.72,1544.55,294.47Z" class="color52bbc7 svgShape"/><path fill="#fefdf6" d="M1446.79,652h-.22a3.59,3.59,0,0,1-3.37-3.82c1.89-30.06,12.18-105.94,12.28-106.7a3.6,3.6,0,1,1,7.14,1c-.1.76-10.35,76.38-12.23,106.19A3.61,3.61,0,0,1,1446.79,652Z" class="colorfefdf6 svgShape"/><path fill="#ffe480" fill-rule="evenodd" d="M1451.54,579.77c-7.76-1.81-8.33-11.68-1.75-15.63s15.43,2.58,13,9.7S1455.68,580.73,1451.54,579.77Z" class="colorffe480 svgShape"/><path fill="#6ec6d0" fill-rule="evenodd" d="M1448.16,619.13c-9.84-.89-12.24-12.92-4.84-18.89s19.4.53,17.68,9.68S1453.4,619.6,1448.16,619.13Z" class="color6ec6d0 svgShape"/><path fill="#8bd2da" fill-rule="evenodd" d="M1446.79,648.39s-21.21,5.65-23.3,39.47,3,85.41,18.41,103.81c0,0,14.28-31,21.56-54.79-3.3-1.26-7-2.86-8.58-4.42,2.61,1,6.19,1.2,9.51,1.28,1.08-4.82,2.26-8.58,2.79-12.1,1.52-10,1.65-32,.21-45.36-3.83,1.12-6.85,2.43-12,.71,5.38-2,10.95-4.32,10.3-6.59C1462.53,659.45,1456.73,650.8,1446.79,648.39Z" class="color8bd2da svgShape"/><path fill="#52bbc7" fill-rule="evenodd" d="M1443.2,648.07s-2.73,39.76-3.87,76.06c-.65,20.79-.77,40.44.45,50.85a1,1,0,0,0,1.07.89,1,1,0,0,0,.89-1.08c-.78-10.37.15-29.85,1.65-50.46,2.62-36.11,7-75.62,7-75.62a3.6,3.6,0,1,0-7.18-.64Z" class="color52bbc7 svgShape"/><path fill="#fff4cc" fill-rule="evenodd" d="M1445.86,648.32c-7.4-.67-9.21-9.72-3.64-14.21s14.59.4,13.3,7.28S1449.81,648.68,1445.86,648.32Z" class="colorfff4cc svgShape"/><path fill="#fefdf6" d="M1579,660.2a4,4,0,0,1-.49,0,3.61,3.61,0,0,1-3.09-4.06c4-29.59,8.83-105.75,8.88-106.51a3.6,3.6,0,1,1,7.19.45c0,.77-4.88,77.19-8.93,107A3.6,3.6,0,0,1,1579,660.2Z" class="colorfefdf6 svgShape"/><path fill="#ffe480" fill-rule="evenodd" d="M1587.83,588.39c8-.25,10.47-9.82,4.8-15s-15.64-.51-14.69,6.94S1583.59,588.52,1587.83,588.39Z" class="colorffe480 svgShape"/><path fill="#6ec6d0" fill-rule="evenodd" d="M1583.42,627.64c9.82,1.06,14.54-10.25,8.45-17.57s-19.12-3.29-19.23,6S1578.18,627.08,1583.42,627.64Z" class="color6ec6d0 svgShape"/><path fill="#8bd2da" fill-rule="evenodd" d="M1579,656.6s19.69,9.71,15.09,43.28-19.75,83.15-38.46,98.17c0,0-7.91-33.18-10.37-58,3.49-.58,7.48-1.41,9.29-2.64-2.75.44-6.3,0-9.58-.62-.12-4.94-.53-8.85-.36-12.41.48-10.07,4.68-31.74,8.71-44.52,3.54,1.86,6.24,3.74,11.64,3.06-4.88-3.06-9.9-6.39-8.82-8.48C1561.39,664.35,1568.78,657,1579,656.6Z" class="color8bd2da svgShape"/><path fill="#52bbc7" fill-rule="evenodd" d="M1575.42,656.21s-3.48,39.6-8,75.52c-2.59,20.5-5.5,39.78-8.3,49.8a1,1,0,1,0,1.89.57c3.23-10,7-29.26,10.43-49.78,6-35.81,11.15-75.33,11.15-75.33a3.6,3.6,0,1,0-7.16-.78Z" class="color52bbc7 svgShape"/><path fill="#fff4cc" fill-rule="evenodd" d="M1579.93,656.72c7.39.79,10.94-7.72,6.36-13.22s-14.38-2.48-14.47,4.52S1576,656.29,1579.93,656.72Z" class="colorfff4cc svgShape"/><path fill="#fefdf6" d="M1517.38,677.39h-.33a3.6,3.6,0,0,1-3.26-3.92c2.69-29.74,4.09-106,4.1-106.81a3.61,3.61,0,0,1,3.6-3.53h.07a3.6,3.6,0,0,1,3.54,3.66c0,.77-1.42,77.33-4.13,107.33A3.61,3.61,0,0,1,1517.38,677.39Z" class="colorfefdf6 svgShape"/><path fill="#6ec6d0" fill-rule="evenodd" d="M1523.15,605.25c7.94-.6,10-10.27,4.12-15.18s-15.65.2-14.37,7.59S1518.91,605.57,1523.15,605.25Z" class="color6ec6d0 svgShape"/><path fill="#ffe480" fill-rule="evenodd" d="M1520.49,644.66c9.86.62,14.07-10.89,7.66-17.93s-19.25-2.44-19,6.87S1515.24,644.33,1520.49,644.66Z" class="colorffe480 svgShape"/><path fill="#fff4cc" fill-rule="evenodd" d="M1517.81,673.83s24.79,10.88,21,52.48-19.73,103.53-42,123.06c0,0-11.57-40.43-16-70.84,4.27-.91,9.14-2.15,11.3-3.76-3.36.69-7.77.29-11.84-.23-.41-6.08-1.14-10.88-1.13-15.28,0-12.42,4-39.36,8.28-55.32,4.47,2.09,7.89,4.26,14.5,3.12-6.18-3.49-12.54-7.32-11.32-9.95C1496.55,684.34,1505.24,674.89,1517.81,673.83Z" class="colorfff4cc svgShape"/><path fill="#52bbc7" fill-rule="evenodd" d="M1513.38,673.54s-2.11,49-5.7,93.49c-2.06,25.38-4.58,49.3-7.48,61.8a1.21,1.21,0,0,0,2.35.6c3.44-12.46,7-36.43,10.11-61.9,5.44-44.44,9.58-93.42,9.58-93.42a4.44,4.44,0,1,0-8.86-.57Z" class="color52bbc7 svgShape"/><path fill="#6ec6d0" fill-rule="evenodd" d="M1518.31,673.86c7.42.47,10.58-8.2,5.76-13.49s-14.48-1.83-14.25,5.17S1514.35,673.61,1518.31,673.86Z" class="color6ec6d0 svgShape"/><path fill="#6ec6d0" fill-rule="evenodd" d="M1974.58,1601.85c0-18.69-8.52-36.62-23.67-49.83s-35.74-19.63-57.13-20.64c-313.9-14.93-1468.52-13.23-1787.56,0-21.4.88-42,7.42-57.13,20.64s-23.67,31.14-23.67,49.83h0c0,18.69,8.51,36.61,23.67,49.83s35.77,19.17,57.13,20.64c323.09,22.17,1477.94,24,1787.56,0,21.34-1.66,42-7.43,57.13-20.64s23.67-31.14,23.67-49.83Z" opacity=".5" class="color6ec6d0 svgShape"/><path fill="#6ec6d0" fill-rule="evenodd" d="M1949.68,1561.6a78.75,78.75,0,0,0-23.06-55.68c-14.77-14.77-34.83-21.93-55.68-23.06-305.88-16.68-1431-14.78-1741.88,0-20.86,1-40.91,8.29-55.68,23.06a78.75,78.75,0,0,0-23.06,55.68h0a78.74,78.74,0,0,0,23.06,55.67c14.77,14.77,34.86,21.43,55.68,23.07,314.83,24.77,1440.17,26.84,1741.88,0,20.8-1.85,40.91-8.3,55.68-23.07a78.74,78.74,0,0,0,23.06-55.67Z" class="color6ec6d0 svgShape"/><path fill="#52bbc7" fill-rule="evenodd" d="M1868.84,1532.22c0-13.13-7.82-25.72-21.72-35s-32.8-13.79-52.43-14.5c-288-10.49-1347.58-9.29-1640.34,0-19.65.62-38.53,5.22-52.43,14.5s-21.72,21.88-21.72,35h0c0,13.14,7.81,25.73,21.72,35s32.82,13.48,52.43,14.51c296.48,15.57,1356.22,16.88,1640.34,0,19.58-1.17,38.52-5.22,52.43-14.51s21.72-21.87,21.72-35Z" class="color52bbc7 svgShape"/><path fill="#013d65" fill-rule="evenodd" d="M149.45,1478.11c-16-41-69.67-162.18,51-301.77,48.56-56.18,283.34-78.19,387.68-220.68,80.54-110,146.3-226.1,219.81-289.39,39.8-34.27,124.2-53.93,188.86-49.79s173,125.16,231.06,157.79c90,50.57,132.89,134.42,234,242.85,58.07,62.25,179.92,74.34,211.24,114.49,91.38,117.14,93.3,296.15,111.58,362.77C1784.66,1494.38,162,1510.36,149.45,1478.11Z" class="color013d65 svgShape"/><path fill="#ffe480" fill-rule="evenodd" d="M123.7,1498.34c25.92,10.61,85.79,2.8,70.79-87.73-6.28-37.89-27.65-119.13,4.47-158.31,40-48.79,93.39-86.78,167.08-121.64,78.39-37.08,180.53-26.93,246.28-96.13,66-69.48,77.78-165.41,158.63-280.92,27.63-39.47,105.39-100,147.14-104,129.06-12.23,164.38,114.36,283.75,166.77,60.84,26.7,109.29,61.09,138.23,107.82,22.83,36.87,25.57,84.89,67.54,119,97,78.71,238,84,258.27,120.56,40.14,72.54,52.48,260.89,56.53,315.3,1.76,23.77,41,38.4,76.13,19.84s20.48-71.76,7.36-119.84c-9.1-33.35-8.76-143.3-65.53-252.76-43.73-84.31-216.55-95.47-238.07-125.67-39.67-55.66-87.4-130.16-145.64-184.3-41.65-38.73-92-57.79-133.53-94.65-76.91-68.2-185.11-141-305-134.76C852.92,590.29,758.92,645,707.8,710.39,631.62,807.88,641,836,531.65,955.66c-79,86.55-160.14,67.67-243.16,118-114.63,69.52-176.24,169.92-200,226.67S84.37,1482.25,123.7,1498.34Z" class="colorffe480 svgShape"/><path fill="#6ec6d0" fill-rule="evenodd" d="M1257.4,1482.71a38.08,38.08,0,0,0-38.09-38.08h-525a38.08,38.08,0,0,0-38.09,38.08h0a38.09,38.09,0,0,0,38.09,38.09h525a38.09,38.09,0,0,0,38.09-38.09Z" opacity=".35" class="color6ec6d0 svgShape"/><path fill="#eab9ae" fill-rule="evenodd" d="M1247.92,1155c24.57,24.6-10,69.68-61.71,38-35.61-21.76-102-71.16-138.14-99.18-23.31-18.08-36.35-55.41-24.29-76.42,13-22.62,48.11-10.92,78.47,9.73C1136.9,1050.75,1213.65,1120.71,1247.92,1155Z" class="coloreab9ae svgShape"/><path fill="#eab9ae" fill-rule="evenodd" d="M1251.88,1186.2c-12.85,32.31-81.88,14-67.4-41.38,9.64-36.83,27.77-59.14,43.24-99.91,10.12-26.67,13.26-66,46.41-58.3,13.26,3,28.28,16.26,29.4,33.42.93,14.33-2.43,31.31-14.48,45.62C1274.21,1083.27,1269.8,1141.15,1251.88,1186.2Z" class="coloreab9ae svgShape"/><path fill="#fefdf6" fill-rule="evenodd" d="M1256,1157.83c11.44,20.48-9.89,57.21-45.92,53.36-34.83-3.72-117-66.43-161.54-99.81-17.88-13.39-38.86-132.76-24.62-132,19.3,1,66.2,28.92,78,38.17C1129.53,1039.19,1238,1125.55,1256,1157.83Z" class="colorfefdf6 svgShape"/><path fill="#fefdf6" fill-rule="evenodd" d="M1249.08,1195.06c-16.87,13.83-57.31,9.26-65.4-26.06-7.81-34.14,15.62-63.13,32.69-116.14,6.84-21.26,73.45,19,68.54,33.19C1273.4,1119.24,1266,1181.24,1249.08,1195.06Z" class="colorfefdf6 svgShape"/><path fill="#eab9ae" fill-rule="evenodd" d="M728.61,1221.06c-11.54,24.61-24.67,63.62,8.15,76.38,36.48,14.17,57.09-23,70.7-48,22.38-41.13,50.45-98.34,68.63-128.28,15.3-25.22,18.58-110.25-3.34-120.58-23.59-11.13-58.27,39.81-76.36,80C787,1101.38,749.06,1177.47,728.61,1221.06Z" class="coloreab9ae svgShape"/><path fill="#fefdf6" fill-rule="evenodd" d="M701.17,1280c-9.21,29.58,60,40.07,81.52,20.53,39.13-35.53,94.72-133.53,119.53-183,10-20-14.22-141.19-27.28-135.46-28.78,12.63-52,46-63.22,60.5C790.47,1070,717.17,1228.61,701.17,1280Z" class="colorfefdf6 svgShape"/><path fill="#017acb" fill-rule="evenodd" d="M842.64,1285.82c-74.3,14-180.23,45.68-186.17,115.51-3.77,44.29,28.8,90.71,183.53,98.8s373.81-6.72,402.77-50.22c52.06-78.17-43.38-138.63-151.47-162.74C1018.18,1270.86,922.06,1270.86,842.64,1285.82Z" class="color017acb svgShape"/><path fill="#eab9ae" fill-rule="evenodd" d="M1247.86,1408.64c-2.19-27.4-43.69-58.64-88.19-49.53-35.56,7.28-137,30.6-161.38,29.44-21.26-1-109.18-17.82-141.39-20-4.74-.32-15.58-1.38-18.44.62-4.23,3-5.28,11.51-1.88,14.83,1.44,1.4,4.36,2.56,6.51,3.28a.84.84,0,0,1,.29,1.28c-.48.65-5.92-.79-9,1.06-2.21,1.35-3.49,6.3-2.59,9.65,1.23,4.58,9.15,4.2,8.59,6.38-.37,1.42-5.35-.46-8.47.81-2.72,1.1-3.86,6.28-2.75,8.94,1,2.29,5.18,2.82,6.78,4.43.32.32.14,1.07-.23,1.45-.81.83-4.46-1.32-7.25.43-2,1.23-3.44,5.81-2.1,8.46,1.13,2.26,3.71,2.25,6,3.44a.72.72,0,0,1-.11,1.27c-.94.26-4.43-1.17-6.6.66s-3.06,5.82-1.32,9.11c1.35,2.54,5.37,2.87,8.4,3.8,16.44,5.07,167.92,26.69,210.12,32.8S1255.39,1502.93,1247.86,1408.64Z" class="coloreab9ae svgShape"/><path fill="#0199fe" fill-rule="evenodd" d="M1257.35,1409.15c-2.2-27.4-42.31-61.47-93.32-51.65-35.64,6.86-151.17,29.09-177,26.83-14.58-1.28-45.85,87-25.82,90.61,42.91,7.64,64.63,8.78,81.29,11.19C1084.72,1492.23,1264.88,1503.44,1257.35,1409.15Z" class="color0199fe svgShape"/><path fill="#efcac2" fill-rule="evenodd" d="M664,1404.27c6.14-26.79,51.73-51.67,94.44-36.2,34.12,12.36,131.1,50.16,155.4,52.55,21.18,2.08,110.61-1.79,142.79.76,4.73.37,15.61.89,18.15,3.28,3.76,3.54,3.55,12.16-.3,15-1.62,1.17-4.68,1.89-6.91,2.3a.84.84,0,0,0-.47,1.22c.38.71,6,.08,8.71,2.34,2,1.66,2.54,6.75,1.16,9.94-1.88,4.34-9.66,2.82-9.42,5.06.16,1.45,5.36.32,8.26,2,2.53,1.48,2.91,6.77,1.42,9.24-1.28,2.13-5.53,2-7.34,3.4-.37.28-.3,1,0,1.47.68.94,4.61-.66,7.11,1.48,1.77,1.51,2.56,6.25.86,8.68-1.46,2.07-4,1.68-6.43,2.53a.72.72,0,0,0-.07,1.27c.89.4,4.55-.52,6.44,1.61s2.17,6.21,0,9.2c-1.7,2.33-5.72,2.07-8.86,2.55-17,2.63-170,2-212.65,2S642.82,1496.47,664,1404.27Z" class="colorefcac2 svgShape"/><path fill="#0199fe" fill-rule="evenodd" d="M664,1404.27c6.14-26.79,51.73-51.67,94.44-36.2,34.12,12.36,129.65,44.76,154,47.14,8.72.86,26.22,3.26,48.79,3.19,18.93-.05,20.43,90.28-4.35,91.59-40.84,2.15-81.91.61-100.85.57C813.3,1510.48,642.82,1496.47,664,1404.27Z" class="color0199fe svgShape"/><path fill="#efcac2" fill-rule="evenodd" d="M689.27,1289.87c14.79-26.73,83.07-5.3,90.13,10,4.47,9.71,2.84,22.54,1.71,30.12-1.82,12.13-20.28,12-21.53,3.9-1.77-11.54-2.81-17.84-2.81-17.84s.3,8.55-.87,14.48c-1.6,8-20.88,9.32-22.54.73a85.64,85.64,0,0,1-1.55-15.2,30.63,30.63,0,0,1-5.59,17.89c-2.65,3.73-13.22,2-15.65-1.6-4.52-6.7-1.76-19.06-1.76-19.06-1.68,7.28-2.17,8.52-6.71,15.89-2.82,4.57-14.7,1.24-15.53-4.88C685.2,1314.16,685,1297.64,689.27,1289.87Z" class="colorefcac2 svgShape"/><path fill="#4eb8fe" fill-rule="evenodd" d="M998.62,968.23c-23.4-6.25-81.25-8-96-.76-7.47,3.64-48.53,14.55-63.63,60.15-14.74,44.5-27.44,187.37-27.31,265.9,48.61,61.88,239.35,41.64,300.74-1.14.11-36.73-14.29-115.18-27.32-171.16-10-43-16.41-87.89-30.82-113.39C1043.07,988,1019.14,973.71,998.62,968.23Z" class="color4eb8fe svgShape"/><path fill="#0199fe" fill-rule="evenodd" d="M957.08,1007.83c-16.82.12-57.38-11.22-54.2-33.82s35.18-18.21,55.4-17.55c25.75.83,50.64,5.2,48.6,26.73C1005,1003.28,982.36,1007.66,957.08,1007.83Z" class="color0199fe svgShape"/><path fill="#eab9ae" fill-rule="evenodd" d="M997.7,938.6s1.74,16.32,2.78,31.23c.78,11.19-5.33,25.68-41.34,25.84-34.77.16-46-15.08-45.89-21.91s2.12-34.86,2.12-34.86Z" class="coloreab9ae svgShape"/><path fill="#001929" fill-rule="evenodd" d="M937.88,680.94c-55.2,6.67-127.36,26.3-156,95.52-13.54,32.68-9.15,82.27,10.67,122.54,15.63,31.75,64.84,78.41,160,62.06,88.65-15.24,114.28-49.12,120.53-96.42,6.69-50.62-3.1-98.08-12.78-115.75C1028.62,691.21,981.57,675.66,937.88,680.94Z" class="color001929 svgShape"/><path fill="#efcac2" fill-rule="evenodd" d="M838.94 887.53c-8.71-9.77-30.43-13.7-37 .55-8.53 18.5 20.47 45.53 43.84 39.48C863.42 923 846.16 895.63 838.94 887.53zM1036.22 829.4c.9-12 11.51-27.9 27.27-17 16 11 9.37 51.22-10.12 56.75C1038.65 873.32 1035.47 839.34 1036.22 829.4z" class="colorefcac2 svgShape"/><path fill="#efcac2" fill-rule="evenodd" d="M979.07,962.84c42.34-9.41,80-53.35,78.37-96.85S1046,718.15,922.86,736.81,812.13,859,822.56,893.77C831.85,924.69,861,989.08,979.07,962.84Z" class="colorefcac2 svgShape"/><path fill="#eb5f61" fill-rule="evenodd" d="M907.33,920s65.53-20.73,90.92-23.38c0,0,12.92,44.38-28,56.76C923.71,967.54,909.05,936.41,907.33,920Z" class="coloreb5f61 svgShape"/><path fill="#eb5f61" d="M1039.73 885.15a3.21 3.21 0 01-2-.7l-9.41-7.38a3.25 3.25 0 114-5.12l9.41 7.38a3.26 3.26 0 01-2 5.82zM1028 888.3a3.24 3.24 0 01-2-.69l-9.41-7.39a3.26 3.26 0 014-5.12l9.4 7.39a3.25 3.25 0 01-2 5.81zM1016.23 891.46a3.21 3.21 0 01-2-.7l-9.41-7.39a3.25 3.25 0 114-5.11l9.41 7.38a3.26 3.26 0 01-2 5.82zM892.33 923.35a3.2 3.2 0 01-2.31-1l-8.41-8.51a3.26 3.26 0 014.64-4.57l8.4 8.51a3.26 3.26 0 01-2.32 5.54zM880.28 925a3.23 3.23 0 01-2.31-1l-8.41-8.52A3.26 3.26 0 01874.2 911l8.4 8.51a3.25 3.25 0 01-2.32 5.54zM868.23 926.66a3.24 3.24 0 01-2.31-1l-8.41-8.52a3.26 3.26 0 014.64-4.57l8.4 8.51a3.26 3.26 0 01-2.32 5.55z" class="coloreb5f61 svgShape"/><path fill="#001929" fill-rule="evenodd" d="M1058.08,769.37c6,24.34,5,66.39-13.57,68.41-13.19,1.43-61.23-26.61-69.16-51.86-6.06,18.44-18,34-26.42,36.45-8.73,2.52-15.63-6.8-15-26-4.73,17.57-9.72,38.32-25.49,42.81-10.42,3-13.27-9.43-13.24-26.84-3.82,19.31-10.17,44.15-21.88,50.14-8,4.07-26.59-2.87-26-33.49.11,26-4.2,60.95-16.2,65.95-12.48,5.21-31.68-18.45-34.76-26.19-12-30-16.81-93.62,12-129.22,35.53-43.93,122-60.52,171.18-46.7C1012.69,702.12,1046.2,721.46,1058.08,769.37Z" class="color001929 svgShape"/><path fill="#001929" fill-rule="evenodd" d="M899.68,696.64s-33.92-18.58-27.2-34.65,33.54,5.21,40.88,22.45c0,0-10.28-43.94,8.2-45.94s15.54,44.09,15.54,44.09,9.11-35.88,24.08-34.59,1.36,41.18-11.87,49S911.63,705.86,899.68,696.64Z" class="color001929 svgShape"/><g mask="url(#e)" fill="#000000" class="color000 svgShape"><path fill="url(#f)" fill-rule="evenodd" d="M1175.06,1129.42l103.22,40.4,93,215.33s-255.48,93.09-348.74,90.82c-78.4-1.91-210.82-104.44-210.82-104.44Z"/></g><path fill="#64c3ce" fill-rule="evenodd" d="M1317.23,962a8.37,8.37,0,0,0-5.15-10.68l-28.52-10a8.39,8.39,0,0,0-10.69,5.15l-53.26,152.16,44.36,15.52Z" class="color64c3ce svgShape"/><path fill="#8bd2da" fill-rule="evenodd" d="M1285.58,1149a55.37,55.37,0,0,0-34-70.57h0a55.39,55.39,0,0,0-70.57,34l-6.11,17.46a3.6,3.6,0,0,0,2.22,4.59l97.73,34.22a3.61,3.61,0,0,0,4.6-2.21C1280.76,1162.73,1283,1156.38,1285.58,1149Z" class="color8bd2da svgShape"/><path fill="#64c3ce" fill-rule="evenodd" d="M1284.52,1152,1180,1115.39l-4.89,14a4.12,4.12,0,0,0,2.52,5.23l98,34.31a2.82,2.82,0,0,0,3.59-1.73Z" class="color64c3ce svgShape"/><path fill="#f18e8f" fill-rule="evenodd" d="M1286.81 1145l-104.26-36.49 0 .07c-.49 1.14-1 2.3-1.37 3.47l0 .08 104.55 36.6C1286.1 1147.46 1286.48 1146.22 1286.81 1145zM1311.16 979.37l-44.35-15.53 1.28-3.67 44.36 15.53zm2.49-7.1l-44.36-15.53 1.29-3.67 44.35 15.53zM1271.86 1049.23a4.19 4.19 0 00-2.57-5.34l-9.27-3.25a4.2 4.2 0 00-5.35 2.57l-5.57 15.92a4.2 4.2 0 002.57 5.34l9.28 3.25a4.2 4.2 0 005.34-2.58C1267.83 1060.73 1270.32 1053.64 1271.86 1049.23z" class="colorf18e8f svgShape"/><path fill="#ffe480" fill-rule="evenodd" d="M1268,1051.38a4.14,4.14,0,0,0-.18-3.2,4.2,4.2,0,0,0-2.39-2.14l-3.67-1.28a4.2,4.2,0,0,0-5.35,2.57c-1,2.88-2.36,6.76-3.37,9.64a4.2,4.2,0,0,0,2.57,5.35l3.68,1.28a4.19,4.19,0,0,0,5.34-2.57C1265.6,1058.15,1267,1054.27,1268,1051.38Z" class="colorffe480 svgShape"/><path fill="#efcac2" fill-rule="evenodd" d="M1294.28,973.49c27.94,9.43,19.37,78,6,87.32-8.44,5.92-20.91,6.59-28.3,6.82-11.84.37-14.94-17.17-7.42-19.77,10.65-3.67,16.45-5.75,16.45-5.75a75.31,75.31,0,0,1-13.9,1.67c-7.92-.13-12.46-18.22-4.58-21.27a82.26,82.26,0,0,1,14.16-4.1,29.53,29.53,0,0,1-18-2.22c-4-1.87-4.18-12.2-1.18-15.13,5.58-5.45,17.8-5,17.8-5-7.21-.34-8.47-.59-16.25-3.63-4.83-1.89-3.72-13.75,1.95-15.59C1270.51,973.81,1286.16,970.74,1294.28,973.49Z" class="colorefcac2 svgShape"/><path fill="#efcac2" fill-rule="evenodd" d="M1251.71,1023.31c5.72-5.7,6.16-16.57,5-25s6.42-10.32,10.58-16.36-2.46-12-8.61-9.64-21.93,18.77-25.94,26.15-8.74,15.32-2.37,24.61C1235,1029.77,1245.86,1029.16,1251.71,1023.31Z" class="colorefcac2 svgShape"/><rect width="336.19" height="48.7" x="1342.32" y="1479.67" fill="#6ec6d0" opacity=".25" rx="24.34" class="color6ec6d0 svgShape"/><path fill="#b6b696" fill-rule="evenodd" d="M1501 1276.49c-11.44-8-79.64 14.27-115.77 35.39-37.64 22-36 61.48-9.11 67.53 25.19 5.67 68.33-26 89.29-43C1493.45 1313.65 1517.05 1287.73 1501 1276.49zM1487.19 1411c-36-5.09-111-.51-136.29 19.49-25 19.76-2.08 60.47 21.89 63 36.72 3.9 118.12-13.08 137.62-33C1522.37 1448.29 1505.73 1413.64 1487.19 1411z" class="colorb6b696 svgShape"/><path fill="#c0c0a5" fill-rule="evenodd" d="M1559.93,1265.7c22.74,3.08,48.54,2.69,71.64,52.77,15.72,34,12.07,105.3-12.63,133.57-69.27,79.29-158.49,41.08-170.71-40.54-5.91-39.49,14.82-95.45,34.34-127.73C1494.4,1264.22,1532.5,1262,1559.93,1265.7Z" class="colorc0c0a5 svgShape"/><path fill="#fefdf6" fill-rule="evenodd" d="M1530.68,1263.34c17.48,1.08,37.42,5.82,48.76,32.09s19.87,74,14.64,100.32c-4.63,23.34-28.48,69.6-79.25,64.14-54.73-5.89-58.16-37.56-61.22-64.47-2.75-24.26,19-83.88,33-108.79C1494.92,1271.91,1509.6,1262,1530.68,1263.34Z" class="colorfefdf6 svgShape"/><path fill="#b6b696" fill-rule="evenodd" d="M1618.11,1451.72c-7.81,42.1-80.52,83.31-110.48,72.48s-31.55-45.42-13.67-61.58c28.44-25.7,82.25-36.13,103-37.95C1608.32,1423.67,1622.39,1428.63,1618.11,1451.72Z" class="colorb6b696 svgShape"/><path fill="#c9c9b1" fill-rule="evenodd" d="M1487.9,1497.89c-1.77-6.91-1.13-27.67,13-31.59,24.44-6.79,43.16,43.22,26.25,52.68C1513.75,1526.48,1492.41,1515.5,1487.9,1497.89Z" class="colorc9c9b1 svgShape"/><path fill="#b6b696" fill-rule="evenodd" d="M1605.87,1287.17c15.91,2.13,77.74,31.67,104.25,74.61s5.91,65.48-21.78,65.79c-22.7.26-58.52-51.26-73.68-78.6C1594.05,1311.81,1590,1285,1605.87,1287.17Z" class="colorb6b696 svgShape"/><path fill="#c0c0a5" fill-rule="evenodd" d="M1666.67,1164.21s28.67-22.18,9.91-43.75-42.23-4.89-51.19,9.69Z" class="colorc0c0a5 svgShape"/><path fill="#f18e8f" fill-rule="evenodd" d="M1662.57,1159.1s21.19-16.39,7.33-32.32-31.2-3.62-37.82,7.15Z" class="colorf18e8f svgShape"/><path fill="#c0c0a5" fill-rule="evenodd" d="M1501.51,1125.65s-18.79-31-42.35-14.81-9.65,41.39,3.82,52Z" class="colorc0c0a5 svgShape"/><path fill="#f18e8f" fill-rule="evenodd" d="M1496,1129.13s-13.88-22.91-31.29-10.94-7.13,30.59,2.82,38.39Z" class="colorf18e8f svgShape"/><path fill="#c9c9b1" fill-rule="evenodd" d="M1556.05,1299c30.67,2.87,117.08-1.32,123.62-91.66,6-83.51-80.76-98.89-118-101.22-35.21-2.2-105.13,11.39-112.8,92.28C1441.29,1278.48,1501.09,1293.84,1556.05,1299Z" class="colorc9c9b1 svgShape"/><g clip-path="url(#g)" fill="#000000" class="color000 svgShape"><path fill="#969669" d="M1559.92 1220h-.11a.83.83 0 01-.7-.92s.11-.69.29-1.88a.81.81 0 01.94-.66.79.79 0 01.67.8.62.62 0 010 .13c-.19 1.2-.28 1.83-.28 1.84A.81.81 0 011559.92 1220zm1.16-6.64l-.16 0a.8.8 0 01-.51-.34.78.78 0 01-.12-.61c.22-1.13.44-2.17.66-3.18a.81.81 0 011.6.18.77.77 0 010 .15h0v.06c-.24 1.09-.46 2.14-.65 3.09A.8.8 0 011561.08 1213.4zm1.75-7.9a.63.63 0 01-.19 0 .81.81 0 01-.59-1c.25-1 .52-2.09.8-3.14v0a.82.82 0 011-.56.79.79 0 01.6.78.69.69 0 010 .2c-.27 1-.52 2-.79 3.13A.81.81 0 011562.83 1205.5zm2.11-7.82a.85.85 0 01-.23 0 .84.84 0 01-.49-.39.89.89 0 01-.07-.62c.32-1.05.63-2.09.95-3.11a.81.81 0 011.59.25.64.64 0 010 .23c-.3 1-.6 2-.94 3.09A.81.81 0 011564.94 1197.68zm2.46-7.71a1.26 1.26 0 01-.27 0 .84.84 0 01-.46-.41.75.75 0 010-.62c.34-1 .69-2 1.11-3.06v0a.81.81 0 011.56.32.66.66 0 010 .25v0l0 0c-.36 1-.7 1.92-1.07 3A.82.82 0 011567.4 1190zm2.88-7.57a.86.86 0 01-.32-.05.81.81 0 01-.43-.44.83.83 0 010-.62c.42-1 .86-2 1.28-3h0a.82.82 0 011.07-.41.79.79 0 01.48.75.87.87 0 01-.06.32c-.46 1-.89 2-1.28 3A.8.8 0 011570.28 1182.4zm3.35-7.36a.86.86 0 01-.36-.08.84.84 0 01-.41-.46.86.86 0 01.05-.63c.49-1 1-2 1.5-2.89a.84.84 0 011.1-.33.8.8 0 01.42.71.76.76 0 01-.1.39c-.5.94-1 1.9-1.48 2.85A.82.82 0 011573.63 1175zm3.92-7.07a.8.8 0 01-.43-.12.84.84 0 01-.36-.5.8.8 0 01.1-.62c.59-.94 1.18-1.87 1.77-2.74h0a.82.82 0 011.12-.21.81.81 0 01.34.67.77.77 0 01-.12.44v0l0 0c-.57.83-1.14 1.73-1.71 2.65A.81.81 0 011577.55 1168zm4.59-6.65a.81.81 0 01-.49-.17.86.86 0 01-.31-.54.82.82 0 01.17-.6c.63-.81 1.3-1.64 2-2.54a.8.8 0 011.13-.1.76.76 0 01.29.61.9.9 0 01-.17.53c-.71.83-1.39 1.68-2 2.49A.82.82 0 011582.14 1161.32zm5.21-6.19a.82.82 0 01-.81-.77.72.72 0 01.21-.58c.67-.75 1.4-1.53 2.22-2.4a.81.81 0 011.39.58.77.77 0 01-.22.53c-.77.82-1.5 1.59-2.2 2.37A.78.78 0 011587.35 1155.13zm5.6-5.85a.81.81 0 01-.57-1.38c.76-.75 1.52-1.48 2.33-2.25h0a.85.85 0 011.15 0 .83.83 0 010 1.14c-.84.8-1.6 1.52-2.32 2.24A.84.84 0 011593 1149.28zm5.9-5.54a.82.82 0 01-.61-.27.81.81 0 01.06-1.13c.87-.79 1.72-1.53 2.43-2.16h0a.83.83 0 011.14.09.77.77 0 01.2.5.81.81 0 01-.28.64c-.78.68-1.57 1.37-2.42 2.14A.83.83 0 011598.85 1143.74zm6.12-5.28a.79.79 0 01-.61-.3.71.71 0 01-.19-.59.75.75 0 01.29-.54l2.5-2.07h0a.82.82 0 011.12.14.8.8 0 01-.11 1.12v0l0 0c-.94.76-1.73 1.4-2.46 2A.83.83 0 011605 1138.46zm6.31-5.08a.82.82 0 01-.64-.31.8.8 0 01-.16-.6.79.79 0 01.31-.53c.79-.62 1.63-1.26 2.58-2a.83.83 0 011.13.16.84.84 0 01.16.49.78.78 0 01-.32.64c-.82.62-1.68 1.27-2.56 2A.76.76 0 011611.28 1133.38zm6.48-4.86a.84.84 0 01-.66-.32.82.82 0 01-.14-.61.78.78 0 01.32-.53c1-.68 1.84-1.33 2.64-1.89a.83.83 0 011.13.19.82.82 0 01.14.45.79.79 0 01-.33.68c-.81.58-1.7 1.2-2.63 1.88A.73.73 0 011617.76 1128.52zm6.63-4.65a.82.82 0 01-.68-.36.8.8 0 01.23-1.11c1.74-1.19 2.72-1.81 2.73-1.81h0a.83.83 0 011.1.26.8.8 0 01-.25 1.11h0l-.07 0c-.78.51-1.66 1.09-2.62 1.74A.79.79 0 011624.39 1123.87zM1509.58 1211.37h-.13a.8.8 0 01-.53-.32.76.76 0 01-.13-.6v0h0a.81.81 0 011.6.15s0 .08 0 .12h0A.82.82 0 011509.58 1211.37zm.67-4.82l-.1 0a.8.8 0 01-.55-.3.78.78 0 01-.16-.59c.13-1.05.24-2.13.35-3.19v0a.81.81 0 011.62.09.22.22 0 010 .08c-.1 1.08-.22 2.17-.36 3.23A.81.81 0 011510.25 1206.55zm.78-8.06H1511a.8.8 0 01-.74-.86c.09-1.08.15-2.16.22-3.21a.81.81 0 011.62 0v0c-.07 1.08-.15 2.16-.23 3.25A.82.82 0 011511 1198.49zm.46-8.07h0a.82.82 0 01-.79-.84c0-1 .07-2.13.08-3.22a.81.81 0 01.82-.79h0a.88.88 0 01.57.23.84.84 0 01.22.58h0c0 1 0 2.1-.08 3.26A.82.82 0 011511.49 1190.42zm.11-8.08h0a.82.82 0 01-.82-.81c0-1.07 0-2.15-.06-3.21v0a.78.78 0 01.78-.79l0 0a.81.81 0 01.81.79c0 1 .06 2.11.08 3.25A.84.84 0 011511.6 1182.34zm-.34-8.09a.81.81 0 01-.8-.75c-.07-1-.15-2.1-.27-3.21v-.08a.82.82 0 01.74-.8.85.85 0 01.88.71v.08c.1 1 .19 2.07.27 3.18a.82.82 0 01-.75.87zm-.82-8a.81.81 0 01-.8-.7c-.15-1-.32-2.09-.51-3.17 0 0 0-.08 0-.12a.81.81 0 011.61-.16c.19 1.08.37 2.17.51 3.23a.81.81 0 01-.69.91zm-1.48-8a.83.83 0 01-.8-.61c-.16-.74-.34-1.43-.52-2.09-.08-.27-.15-.53-.22-.8l-.06-.21a.75.75 0 010-.2.8.8 0 01.59-.8.82.82 0 011 .55h0l0 0h.05c.09.34.19.67.28 1 .18.66.36 1.36.55 2.13a.81.81 0 01-.6 1A.65.65 0 011509 1158.26zm-2.23-7.76a.8.8 0 01-.77-.56c-.36-1.09-.71-2.07-1-3h0a.66.66 0 01-.05-.28.78.78 0 01.54-.75.82.82 0 011 .48c.35 1 .71 2 1 3.09a.8.8 0 01-.52 1A.69.69 0 011506.73 1150.5zm-2.78-7.6a.81.81 0 01-.76-.51c-.4-1-.81-2-1.24-3a.92.92 0 01-.06-.33.78.78 0 01.49-.74.81.81 0 011.06.42c.41 1 .83 2 1.26 3a.83.83 0 01-.45 1.06A1 1 0 011504 1142.9zm-3.27-7.4a.8.8 0 01-.73-.46c-.47-1-1-2-1.42-2.87h0a.7.7 0 01-.09-.39.79.79 0 01.44-.71.83.83 0 011.09.36c.55 1.09 1 2 1.44 2.92a.8.8 0 01-.38 1.07A.72.72 0 011500.68 1135.5zm-3.71-7.18a.85.85 0 01-.72-.41c-.51-.94-1-1.88-1.58-2.8a.84.84 0 01-.11-.43.8.8 0 011.5-.39q.8 1.35 1.62 2.82a.83.83 0 01-.32 1.11A.78.78 0 011497 1128.32zm-4.13-7a.81.81 0 01-.69-.37c-.59-.92-1.18-1.84-1.75-2.7a.73.73 0 01-.15-.44.82.82 0 01.36-.68.83.83 0 011.13.22c.59.88 1.19 1.8 1.78 2.73a.83.83 0 01-.24 1.12A.88.88 0 011492.84 1121.36zm-4.56-6.68a.81.81 0 01-.66-.33c-1.22-1.67-1.94-2.52-1.95-2.54h0a.79.79 0 01.11-1.12.83.83 0 011.14.1c.2.24.91 1.12 2 2.61a.82.82 0 01-.17 1.13A.77.77 0 011488.28 1114.68z" class="color969669 svgShape"/></g><path fill="#fefdf6" fill-rule="evenodd" d="M1547.33,1290.82c15,1,56.37,1.07,58.48-43,2-40.71-50.18-47.62-68.28-49-24-1.88-55.33,3.16-55,44.6C1482.88,1277.48,1520.53,1289,1547.33,1290.82Z" class="colorfefdf6 svgShape"/><path fill="#787854" fill-rule="evenodd" d="M1523.8,1226.65s13-6.51,9.42-11.34c-4.12-5.49-18.06-3.85-18.26.43C1514.66,1222,1523.8,1226.65,1523.8,1226.65Z" class="color787854 svgShape"/><path fill="#787854" d="M1536.36,1247.33a1.63,1.63,0,0,1-1.39-.78L1523.61,1228l-14.88,16.79a1.62,1.62,0,1,1-2.42-2.15l16.32-18.42a1.65,1.65,0,0,1,1.36-.54,1.6,1.6,0,0,1,1.23.77l12.51,20.46a1.61,1.61,0,0,1-.53,2.22A1.65,1.65,0,0,1,1536.36,1247.33Z" class="color787854 svgShape"/><path fill="#eb5f61" d="M1623 1230a2 2 0 01-1.76-1l-3.86-6.44a2 2 0 113.51-2.1l3.86 6.44a2.06 2.06 0 01-.7 2.81A2.13 2.13 0 011623 1230zM1615.41 1229.16a2 2 0 01-1.76-1l-3.86-6.44a2 2 0 113.51-2.1l3.86 6.45a2 2 0 01-.7 2.8A2 2 0 011615.41 1229.16zM1607.81 1228.37a2 2 0 01-1.75-1l-3.86-6.45a2 2 0 013.51-2.1l3.85 6.45a2 2 0 01-.7 2.8A2 2 0 011607.81 1228.37zM1485.28 1218.57a2.05 2.05 0 01-1.62-.8l-4.57-6a2 2 0 113.25-2.49l4.56 6a2.05 2.05 0 01-.37 2.87A2.09 2.09 0 011485.28 1218.57zM1477.65 1218.65a2 2 0 01-1.63-.8l-4.57-6a2 2 0 013.25-2.49l4.57 6a2 2 0 01-.38 2.86A2 2 0 011477.65 1218.65zM1470 1218.74a2.07 2.07 0 01-1.63-.8l-4.57-6a2 2 0 013.25-2.48l4.57 6a2 2 0 01-1.62 3.29z" class="coloreb5f61 svgShape"/><rect width="336.19" height="48.7" x="195.91" y="1470.04" fill="#6ec6d0" opacity=".25" rx="24.34" class="color6ec6d0 svgShape"/><path fill="#e6e6e6" fill-rule="evenodd" d="M370.17,1365.41c26.77-7.27,75.94-1.76,72.36,61.6-1.39,24.62-21.1,29.61-17.61,31,15.27,6.24,81.88,0,85.25,21.09,3.91,24.54-117.41,13.94-155.23,6.17s-28.26-30.85-21.89-36.2S297.22,1385.22,370.17,1365.41Z" class="colore6e6e6 svgShape"/><path fill="#c0c0a5" fill-rule="evenodd" d="M449.79,1461.38c25,1.61,58,3,60.38,17.75,2,12.79-30,16-66.43,15.11-.88-2.73.44-4.6,3.24-7.09s9.91-4.09,11-8.38C459.83,1471.32,447.94,1470,449.79,1461.38Z" class="colorc0c0a5 svgShape"/><path fill="#ffffff" fill-rule="evenodd" d="M254.14,1399.82c-13.43-22.27-43.87-57.42-45-102-1-40.58,28.64-82.7,60.78-55.23,26.95,23,12.83,42.92,8.26,47.87-5.93,6.43,5.94,31.71,25.46,12.31,18.4-18.29,19.63-57.82-10.22-85.09s-73.85-16.42-94.84,14.66c-23.72,35.14-31.54,59-18,101.86,14.58,46.1,31.33,64.42,45.07,81C238.24,1430.33,262.34,1413.41,254.14,1399.82Z" class="colorfff svgShape"/><path fill="#c9c9b1" fill-rule="evenodd" d="M264,1202.94c-2.5,4.93-3.95,9.53-2.94,12.56,3.3,9.93,24,16.19,18.29,22.47s-10.22-8.52-17.27-.84h0a42.48,42.48,0,0,1,7.91,5.42c26.95,23,12.83,42.92,8.26,47.87-5.93,6.43,5.94,31.71,25.46,12.31,18.4-18.29,19.63-57.82-10.22-85.09A58.34,58.34,0,0,0,264,1202.94Z" class="colorc9c9b1 svgShape"/><path fill="url(#h)" fill-rule="evenodd" d="M482.82,1322.59s19.89,78.47,25.8,118.58c5.51,37.53,2.5,60-15.28,61.53s-22.12-37.35-24.92-51.79-22-103.57-22-103.57Z"/><path fill="#c9c9b1" fill-rule="evenodd" d="M509.72,1449.49c-3.5-1.29-7.44-2.29-10.72-2-8,.77-10.49,12.38-16.89,10a23.66,23.66,0,0,0-12.68-1c2.92,17,8.1,47.52,23.91,46.17C509.76,1501.3,513.59,1482,509.72,1449.49Z" class="colorc9c9b1 svgShape"/><path fill="#f2f2f2" fill-rule="evenodd" d="M369.31,1485.44c-27.82,6.82-85.29,12.62-113.43,7.51-32.89-6-53.86-50.71-38.08-102.16,18.72-61,141.41-148.88,247.67-103.89,54.6,23.12,8.72,83-19,125.77C424.89,1445.91,400,1477.92,369.31,1485.44Z" class="colorf2f2f2 svgShape"/><path fill="#c9c9b1" fill-rule="evenodd" d="M285,1313.22c9,8.56,26,25.14,35.93,37,14,16.67,12.73,41.72.66,46.19s-21.63-9.81-37.78-29.16c-7.49-9-20.08-19.24-31.41-27.67A228.83,228.83,0,0,1,285,1313.22Zm45.76-24.1c7.33,9.42,24.49,31.62,31.71,41.92,9.29,13.27,12.92,42.42,2.62,45.09s-20.91-10.27-33.77-30.52c-8.79-13.84-23.81-31.34-32.46-41A239.11,239.11,0,0,1,330.71,1289.12Zm54.75-13.64A246.41,246.41,0,0,1,408,1306.2c8.2,13.74,17.11,38.29,3,44s-21.89-9.41-34.28-27.65c-9.23-13.57-25.21-30.47-32.78-38.23A201.31,201.31,0,0,1,385.46,1275.48Z" class="colorc9c9b1 svgShape"/><path fill="url(#i)" fill-rule="evenodd" d="M433.75,1350.23s19.89,55.53,26.6,95.51c6.28,37.41,3.72,60-14,61.83s-22.86-36.9-26-51.28-22.45-80.58-22.45-80.58Z"/><path fill="#c9c9b1" fill-rule="evenodd" d="M461.63,1454c-3.54-1.22-7.49-2.14-10.76-1.76-8,.93-10.24,12.59-16.69,10.34a23.73,23.73,0,0,0-12.7-.72c3.27,16.89,9.07,47.35,24.85,45.68C462.72,1505.83,466.15,1486.46,461.63,1454Z" class="colorc9c9b1 svgShape"/><path fill="#ffffff" fill-rule="evenodd" d="M282.19,1381.66c26.77-7.27,75.94-1.77,72.36,61.6-1.39,24.62-21.1,29.61-17.61,31,15.28,6.24,81.88,0,85.25,21.09,3.91,24.54-117.41,13.94-155.23,6.17s-28.26-30.85-21.89-36.2S209.25,1401.47,282.19,1381.66Z" class="colorfff svgShape"/><path fill="#c9c9b1" fill-rule="evenodd" d="M361.81,1477.63c25,1.61,58,3,60.38,17.75,2,12.79-30,16-66.43,15.11-.87-2.73.44-4.6,3.24-7.09s9.91-4.09,11-8.38C371.85,1487.57,360,1486.26,361.81,1477.63Z" class="colorc9c9b1 svgShape"/><path fill="#ffffff" fill-rule="evenodd" d="M486.29,1324.21c-22.82,1.12-81.32-10.89-99.53-44.76s-14.38-102.42-.17-122.65,24.13,6.77,29.73,17.75c0,0,92.94,3.45,112.9,5.33,0,0,9-28.51,26-24.22s21.14,55.89,11.74,98.09C558.42,1292.31,543.23,1321.42,486.29,1324.21Z" class="colorfff svgShape"/><path fill="#ee7a89" fill-rule="evenodd" d="M406.53 1174.58s-6.87-19.78-12.7-21.36-11.16 15.36-12.66 22.1zM549.56 1181.6s2.08-23.62 7-23.14S568 1183.73 568 1183.73z" class="coloree7a89 svgShape"/><path fill="#e63336" fill-rule="evenodd" d="M499.19,1285.07s-17.16-12.46-16.05-18.82,33.5-5.41,35.73,1.31S499.19,1285.07,499.19,1285.07Z" class="colore63336 svgShape"/><path fill="#e63336" d="M518.48,1305.77a1.41,1.41,0,0,1-.41-.07c-7.58-2.52-13.68-8.78-17.8-18.23-2.57,8.11-8.31,14.08-17.13,17.78a1.32,1.32,0,0,1-1-2.43c9.51-4,14.92-10.51,16.55-20a1.32,1.32,0,0,1,2.54-.21c3.79,10.85,9.91,17.95,17.69,20.54a1.32,1.32,0,0,1-.42,2.57Z" class="colore63336 svgShape"/><path fill="#eb5f61" d="M417.63 1261.65a2.48 2.48 0 01-1.87-4.1l5.94-6.89a2.47 2.47 0 113.75 3.23l-5.94 6.9A2.47 2.47 0 01417.63 1261.65zM426.87 1262.28a2.45 2.45 0 01-1.62-.6 2.48 2.48 0 01-.26-3.49l5.95-6.9a2.48 2.48 0 113.75 3.24l-5.94 6.89A2.48 2.48 0 01426.87 1262.28zM436.1 1262.92a2.48 2.48 0 01-1.87-4.1l5.94-6.89a2.48 2.48 0 013.76 3.23l-5.95 6.9A2.47 2.47 0 01436.1 1262.92zM531.76 1271.32a2.43 2.43 0 01-1.36-.41 2.46 2.46 0 01-.7-3.43l5-7.59a2.48 2.48 0 014.13 2.73l-5 7.59A2.49 2.49 0 01531.76 1271.32zM541 1270.79a2.43 2.43 0 01-1.36-.41 2.48 2.48 0 01-.7-3.44l5-7.59a2.48 2.48 0 014.13 2.74l-5 7.59A2.47 2.47 0 01541 1270.79zM550.25 1270.26a2.46 2.46 0 01-1.37-.41 2.49 2.49 0 01-.7-3.44l5-7.59a2.48 2.48 0 014.13 2.74l-5 7.59A2.46 2.46 0 01550.25 1270.26z" class="coloreb5f61 svgShape"/><path fill="#969669" d="M527.83 1280.42a1.33 1.33 0 01-.23-2.63c16.94-3 32-4 46.1-2.89a1.33 1.33 0 011.22 1.43 1.32 1.32 0 01-1.42 1.21c-13.85-1.06-28.72-.13-45.43 2.86zM572.42 1291.26h-.16c-13.2-1.65-28-1.82-45.21-.51a1.32 1.32 0 11-.21-2.64c17.41-1.32 32.38-1.15 45.74.52a1.33 1.33 0 01-.16 2.64zM571 1308.23a1.27 1.27 0 01-.47-.09c-12.57-4.75-27.08-7.06-44.35-7.06h-.09a1.33 1.33 0 01-1.32-1.33 1.38 1.38 0 011.41-1.32c17.59 0 32.41 2.37 45.29 7.24a1.32 1.32 0 01.77 1.7A1.33 1.33 0 01571 1308.23zM453.09 1276.13l-.3 0c-16.54-3.81-31.34-5.49-45.23-5.09a1.33 1.33 0 01-.08-2.65c14.12-.38 29.14 1.3 45.91 5.16a1.32 1.32 0 011 1.58A1.33 1.33 0 01453.09 1276.13zM453.47 1286.49h-.16c-17.15-2.15-31.93-2.72-45.19-1.72a1.32 1.32 0 11-.19-2.64c13.42-1 28.38-.44 45.71 1.73a1.33 1.33 0 01-.17 2.64zM408.65 1301.78a1.32 1.32 0 01-1.26-.91 1.33 1.33 0 01.85-1.67c13.12-4.24 28.07-5.87 45.68-5a1.33 1.33 0 01-.13 2.65c-17.29-.86-31.92.73-44.73 4.87A1.51 1.51 0 01408.65 1301.78z" class="color969669 svgShape"/><path fill="#c9c9b1" fill-rule="evenodd" d="M461.79,1176.36c.07,10.1.19,31.17.09,43.47-.07,8.45-18.59,10.44-21.43-.94-3.4-13.64-5-35.65-5.44-43.62C442.62,1175.57,452,1175.94,461.79,1176.36Zm35.35,1.59c-.35,10-1.22,29.2-2,41.81-.57,9.65-21.3,9.7-21.24-1.44.07-13.84-.81-32.5-1.29-41.49C481,1177.19,489.38,1177.58,497.14,1178Zm27.44,1.56c.23,11.87.17,30-1.92,41.15-.95,5-13,8.19-15.93-1.59-3.13-10.63-2.92-31.92-2.68-40.77C512.28,1178.72,519.44,1179.13,524.58,1179.51Z" class="colorc9c9b1 svgShape"/><path fill="#6ec6d0" fill-rule="evenodd" d="M1502.06,1540.22a26.43,26.43,0,0,0-26.43-26.42H514.91a26.42,26.42,0,0,0-26.42,26.42v0a26.42,26.42,0,0,0,26.42,26.42h960.72a26.43,26.43,0,0,0,26.43-26.42Z" opacity=".35" class="color6ec6d0 svgShape"/><path fill="#acac86" d="M982.18,1445a3.27,3.27,0,0,1-1.84-.57C835.57,1344,635.19,1339.37,549.45,1351a3.23,3.23,0,0,1-.86-6.4c86.59-11.71,289-7,435.43,94.5a3.23,3.23,0,0,1-1.84,5.88Z" class="coloracac86 svgShape"/><path fill="#acac86" d="M982.18,1445a3.25,3.25,0,0,1-2.21-.87c-46-43.06-118.14-77.45-203-96.85-75.71-17.3-151.66-20.31-203.16-8a3.23,3.23,0,0,1-1.5-6.28c52.42-12.49,129.47-9.49,206.1,8,86,19.65,159.15,54.61,206,98.44a3.23,3.23,0,0,1-2.21,5.58Z" class="coloracac86 svgShape"/><path fill="#acac86" d="M987.12,1445.5a3.23,3.23,0,0,1-2.39-5.39c1.16-1.28,29.09-31.58,93.41-58,37.64-15.44,80-26.28,125.85-32.21,57.25-7.41,120.2-7.16,187.11.74a3.23,3.23,0,0,1-.76,6.42c-149.95-17.72-251,7-309.3,30.84-63.14,25.82-91.25,56.21-91.53,56.51A3.18,3.18,0,0,1,987.12,1445.5Z" class="coloracac86 svgShape"/><path fill="#acac86" fill-rule="evenodd" d="M920.65,1494.38s-.85-53.16,61.53-52.66c60.3.48,65.31,39.71,65.17,51.84Z" class="coloracac86 svgShape"/><path fill="#d5d5c3" fill-rule="evenodd" d="M1034,1505.06s1.06-47.47-51.84-63.34c0,0,196.34-138,454.74-62,9.92,53.06-2.68,109.76-2.68,109.76Z" class="colord5d5c3 svgShape"/><g clip-path="url(#j)" fill="#000000" class="color000 svgShape"><path fill="#acac86" d="M988.31 1453a3.23 3.23 0 01-1.82-5.9c.51-.35 51.71-35.11 104.34-53a3.23 3.23 0 012.08 6.11c-51.78 17.61-102.27 51.88-102.78 52.22A3.23 3.23 0 01988.31 1453zM999.88 1455.36a3.23 3.23 0 01-1.51-6.08c.75-.4 75.11-39.43 123.87-51.21a3.23 3.23 0 011.51 6.28c-48 11.59-121.63 50.25-122.37 50.64A3.23 3.23 0 01999.88 1455.36zM1024.47 1501.45a3.23 3.23 0 01-.92-6.32c1.48-.44 149.18-43.94 241-37.3a3.23 3.23 0 01-.46 6.44c-90.62-6.55-237.22 36.61-238.69 37A3.2 3.2 0 011024.47 1501.45z" class="coloracac86 svgShape"/><path fill="#acac86" d="M1019.32,1490.63a3.23,3.23,0,0,1-1.05-6.28c1.1-.38,111-38,199.79-41.36a3.27,3.27,0,0,1,3.35,3.11,3.23,3.23,0,0,1-3.1,3.35c-87.81,3.32-196.84,40.63-197.93,41A3.26,3.26,0,0,1,1019.32,1490.63Z" class="coloracac86 svgShape"/><path fill="#acac86" d="M1011.84,1482.37a3.23,3.23,0,0,1-1.44-6.12c105.76-52.31,290.41-59.2,292.26-59.27a3.23,3.23,0,0,1,.23,6.46c-1.84.06-185.12,6.9-289.63,58.6A3.28,3.28,0,0,1,1011.84,1482.37Z" class="coloracac86 svgShape"/><path fill="#acac86" d="M1006.22,1473.37a3.23,3.23,0,0,1-1.46-6.11c1.14-.58,115.44-57.91,220.89-60.4h.08a3.23,3.23,0,0,1,.07,6.46c-104,2.45-217,59.13-218.12,59.7A3.2,3.2,0,0,1,1006.22,1473.37Z" class="coloracac86 svgShape"/><path fill="#acac86" d="M997.38 1467.37a3.25 3.25 0 01-2.62-1.33 3.22 3.22 0 01.72-4.51c33.61-24.45 166.26-64.81 171.89-66.52a3.23 3.23 0 111.87 6.18c-1.37.42-137.23 41.75-170 65.56A3.24 3.24 0 01997.38 1467.37zM1453.1 1402.3a3.07 3.07 0 01-1.28-.27c-25-10.82-64.31-15.91-64.71-16a3.23 3.23 0 01.82-6.41c1.65.21 40.6 5.26 66.45 16.45a3.23 3.23 0 01-1.28 6.19zM1452.82 1415.35a3.14 3.14 0 01-1.39-.32c-14.09-6.74-44.24-13.1-44.54-13.17a3.23 3.23 0 111.33-6.32c1.26.27 31.21 6.6 46 13.67a3.23 3.23 0 01-1.4 6.14zM1455.32 1432.48a3.39 3.39 0 01-1.12-.2c-35.21-13-79.62-20.74-80.06-20.82a3.23 3.23 0 111.1-6.36c.45.08 45.42 7.93 81.2 21.12a3.23 3.23 0 01-1.12 6.26zM1461.05 1445.79a3.26 3.26 0 01-1.14-.2c-9.71-3.66-35.81-10.41-36.08-10.48a3.23 3.23 0 111.62-6.25c1.08.28 26.7 6.9 36.74 10.68a3.23 3.23 0 01-1.14 6.25zM1448.74 1479.8a3.1 3.1 0 01-1.11-.2c-23.73-8.66-95.54-14.47-96.26-14.53a3.23 3.23 0 11.52-6.44c3 .24 73.4 5.94 97.95 14.91a3.23 3.23 0 01-1.1 6.26zM1450.93 1469.28a3.17 3.17 0 01-1-.14c-18.5-5.69-72.71-13.46-73.26-13.53a3.23 3.23 0 11.92-6.4c2.24.32 55.26 7.92 74.24 13.76a3.23 3.23 0 01-1 6.31z" class="coloracac86 svgShape"/></g><path fill="#d5d5c3" fill-rule="evenodd" d="M531.7,1496.68c-9.33-40.77-12.33-83.26-10.09-125.52a12.58,12.58,0,0,1,10.93-11.75c51.93-6,289.67-26.35,450.82,81,0,0-53.63,14.2-42.06,66.65Z" class="colord5d5c3 svgShape"/><g clip-path="url(#k)" fill="#000000" class="color000 svgShape"><path fill="#acac86" d="M526.12 1493.16a3.23 3.23 0 01-.61-6.4c.31-.06 30.7-5.91 57.58-8.21a3.23 3.23 0 01.55 6.43c-26.54 2.27-56.6 8.06-56.9 8.12A3.26 3.26 0 01526.12 1493.16zM523.1 1483a3.23 3.23 0 01-.57-6.4c1.56-.29 38.29-6.9 49.84-8.27a3.23 3.23 0 11.76 6.41c-11.36 1.35-49.08 8.14-49.45 8.21A2.9 2.9 0 01523.1 1483zM519.68 1471.58a3.23 3.23 0 01-.44-6.43c1.55-.22 38.06-5.34 45.91-5.62a3.26 3.26 0 013.34 3.11 3.22 3.22 0 01-3.11 3.34c-7.51.27-44.87 5.51-45.24 5.56A2.45 2.45 0 01519.68 1471.58zM512.34 1412.38a3.23 3.23 0 01-.3-6.44c.42 0 42.8-4.1 63.16-4.64a3.23 3.23 0 01.17 6.46c-20.14.53-62.29 4.56-62.72 4.6zM512.94 1400.33a3.23 3.23 0 01-.36-6.44c1.3-.15 32.08-3.62 49.17-2.66a3.23 3.23 0 11-.37 6.45c-16.53-.93-47.76 2.59-48.07 2.63zM517.83 1386.22a3.23 3.23 0 01-.16-6.45c1.06-.06 26.05-1.3 36-1a3.23 3.23 0 11-.22 6.45c-9.72-.32-35.23.94-35.49 1zM976.32 1451.83a3.22 3.22 0 01-1.89-.61c-63.3-45.62-167.76-63.07-244.23-69.67a1208.22 1208.22 0 00-152.62-3.39 3.23 3.23 0 01-.36-6.45 1216.1 1216.1 0 01153.53 3.41c77.29 6.67 183 24.38 247.46 70.86a3.23 3.23 0 01-1.89 5.85z" class="coloracac86 svgShape"/><path fill="#acac86" d="M967.83,1461.92a3.19,3.19,0,0,1-1.83-.57c-49.73-34.5-118.31-49.17-167.08-55.4-53-6.77-94.59-5.32-95-5.3a3.23,3.23,0,0,1-.24-6.45,656.41,656.41,0,0,1,96.07,5.34c49.49,6.32,119.14,21.26,169.94,56.5a3.23,3.23,0,0,1-1.85,5.88Z" class="coloracac86 svgShape"/><path fill="#acac86" d="M962,1470.81a3.2,3.2,0,0,1-1.63-.44c-87.26-51.22-234.5-48-236-48h-.09a3.23,3.23,0,0,1-.08-6.46,684.43,684.43,0,0,1,85.89,4.63c44.36,5.12,107,17,153.52,44.25a3.23,3.23,0,0,1-1.64,6Z" class="coloracac86 svgShape"/><path fill="#acac86" d="M950.85,1481.57a3.32,3.32,0,0,1-1.58-.41c-53.81-30.15-132.44-38.58-188.93-40.34a887.13,887.13,0,0,0-111.16,3.47,3.23,3.23,0,0,1-.71-6.42,893.17,893.17,0,0,1,112-3.51c57.24,1.78,137,10.37,192,41.16a3.23,3.23,0,0,1-1.58,6Z" class="coloracac86 svgShape"/><path fill="#acac86" d="M945.21,1493.75a3.21,3.21,0,0,1-1.8-.54c-65.83-44.06-219.58-33.8-221.13-33.69a3.23,3.23,0,1,1-.45-6.44,743.21,743.21,0,0,1,86.68.16c63.41,3.9,110,15.54,138.49,34.6a3.23,3.23,0,0,1-1.79,5.91Z" class="coloracac86 svgShape"/><path fill="#acac86" d="M943.19,1504.31a3.15,3.15,0,0,1-1.23-.25c-55.49-23-131.54-28.39-132.3-28.44a3.22,3.22,0,0,1-3-3.44,3.26,3.26,0,0,1,3.44-3c.77.06,77.85,5.54,134.33,28.93a3.23,3.23,0,0,1-1.24,6.21Z" class="coloracac86 svgShape"/></g><path fill="#da3738" fill-rule="evenodd" d="M521.76,1536.32c127.27,2.32,271.24,7.1,401.35,5,11.9-.2,23.62.48,28.71-10.27s1.62-28.2-10.27-28.72c-144.54-6.31-288.62-7.06-414.18-8.75-11.9-.16-22.64,6.77-24.19,18.57A21.58,21.58,0,0,0,521.76,1536.32Z" class="colorda3738 svgShape"/><path fill="#da3738" fill-rule="evenodd" d="M932.33,1551.61h105.5a29.81,29.81,0,0,0,0-59.61H932.33a29.81,29.81,0,0,0,0,59.61Z" class="colorda3738 svgShape"/><path fill="#da3738" fill-rule="evenodd" d="M1462.24,1485.83c-129.92,4-255.57,8.56-434.63,16.83-12,.55-14.57,18.79-8.93,29.36s17.39,9.25,29.36,8.93c155.43-4.17,291.68-8,415.53-11.74a21.7,21.7,0,1,0-1.33-43.38Z" class="colorda3738 svgShape"/><path fill="#a20d28" fill-rule="evenodd" d="M503.55,1510.11c126.21,2.54,857.24-1.6,980.77-6.09a19,19,0,0,1,.24,2.63,21.7,21.7,0,0,1-21,22.35c-118.19,3.61-271.1,12-403.06,12.18-1.38,5.42-9.62,10.43-22.64,10.43H932.33c-12.65,0-18.74,1.34-23.06-9.78-165.78.75-264.26-.34-387.51-5.51a21.58,21.58,0,0,1-18.58-24.19C503.27,1511.44,503.4,1510.77,503.55,1510.11Z" class="colora20d28 svgShape"/></g></svg>